<?xml version="1.0" encoding="UTF-8" ?>
<!DOCTYPE svg PUBLIC "-//W3C//DTD SVG 1.1//EN" "http://www.w3.org/Graphics/SVG/1.1/DTD/svg11.dtd">
<svg width="200pt" height="200pt" viewBox="0 0 200 200" version="1.1" xmlns="http://www.w3.org/2000/svg">
<g id="#ffffffff">
</g>
<g id="#000000ff">
<path fill="#000000" opacity="1.00" d=" M 49.25 53.87 C 51.08 56.67 54.18 59.35 53.78 62.99 C 53.33 68.02 53.38 73.11 54.39 78.08 C 55.22 81.34 53.39 84.37 52.24 87.30 C 46.78 99.23 42.00 111.81 33.27 121.83 C 30.71 119.56 28.24 117.04 26.92 113.81 C 26.95 111.14 28.69 108.72 28.35 106.02 C 26.64 94.77 24.81 83.52 23.97 72.16 C 23.93 70.49 22.02 69.48 22.14 67.79 C 22.20 64.28 22.29 60.70 23.28 57.32 C 24.29 56.61 25.40 56.09 26.49 55.52 C 29.60 68.09 30.87 81.07 34.52 93.51 C 41.40 81.09 43.87 66.91 49.25 53.87 Z" />
<path fill="#000000" opacity="1.00" d=" M 62.50 59.45 C 70.34 57.07 78.64 58.71 86.35 60.79 C 86.89 64.13 86.22 67.44 84.91 70.51 C 80.76 70.96 76.62 71.51 72.56 72.48 C 71.09 75.90 69.62 79.31 68.15 82.72 C 73.99 82.77 79.96 82.94 85.40 85.32 C 85.04 86.93 84.68 88.54 84.34 90.15 C 76.81 92.04 69.79 95.83 64.21 101.25 C 65.29 102.88 66.04 105.39 68.32 105.59 C 73.74 106.11 78.15 102.32 82.68 100.00 C 80.96 103.20 79.87 106.79 77.77 109.76 C 73.23 112.50 67.98 116.06 62.44 114.86 C 60.68 113.22 58.96 111.52 56.35 111.64 C 56.02 100.14 57.06 88.66 58.71 77.28 C 59.72 71.33 59.89 64.93 62.50 59.45 Z" />
<path fill="#000000" opacity="1.00" d=" M 88.55 62.89 C 93.34 62.51 98.15 60.90 102.97 62.01 C 109.54 63.20 116.31 65.13 121.58 69.41 C 123.54 73.00 124.03 77.19 124.73 81.16 C 124.98 82.81 124.73 85.38 122.59 85.45 C 115.39 86.93 107.99 86.37 100.69 86.52 C 107.48 94.39 116.19 100.27 125.60 104.55 C 122.25 106.57 119.25 109.15 115.92 111.14 C 108.82 109.64 102.81 105.22 97.51 100.47 C 97.18 104.18 96.72 107.89 95.86 111.52 C 93.82 110.32 90.33 109.78 90.16 106.90 C 89.49 94.23 90.71 81.56 92.35 69.02 C 90.97 68.35 89.60 67.69 88.22 67.02 C 88.33 65.65 88.43 64.27 88.55 62.89 M 100.97 73.30 C 100.64 76.90 100.28 80.50 99.87 84.10 C 106.16 83.49 112.52 82.33 118.08 79.16 C 113.04 75.64 107.02 73.92 100.97 73.30 Z" />
<path fill="#000000" opacity="1.00" d=" M 124.10 67.80 C 130.42 66.89 136.77 67.71 143.04 68.56 C 145.28 68.86 147.55 66.75 149.63 68.26 C 153.53 70.58 158.05 71.35 162.18 73.13 C 161.86 75.64 161.91 79.01 159.06 80.07 C 150.09 84.22 142.67 90.99 136.22 98.36 C 139.05 99.86 141.83 101.65 145.03 102.25 C 149.26 102.70 153.02 100.29 157.02 99.42 C 158.80 99.50 160.23 100.83 161.78 101.57 C 154.78 104.74 147.59 107.82 139.99 109.21 C 133.47 110.49 127.69 105.21 125.45 99.52 C 124.13 96.69 125.75 93.69 127.36 91.36 C 131.68 85.37 137.32 80.18 144.18 77.27 C 139.23 76.45 134.19 76.01 129.36 74.65 C 126.84 73.13 125.70 70.15 124.10 67.80 Z" />
<path fill="#000000" opacity="1.00" d=" M 170.34 68.00 C 174.52 66.42 176.72 70.81 178.26 73.86 C 179.52 75.38 178.27 77.15 177.79 78.72 C 174.31 87.50 172.13 96.72 169.31 105.73 C 166.69 104.56 163.94 102.77 163.47 99.69 C 162.76 94.72 164.83 89.92 165.28 85.03 C 165.08 82.77 163.73 80.84 162.86 78.80 C 165.03 75.01 167.02 70.93 170.34 68.00 Z" />
<path fill="#000000" opacity="1.00" d=" M 159.90 109.59 C 161.97 109.04 164.19 107.16 166.32 108.60 C 167.89 110.43 166.90 112.93 166.84 115.06 C 168.05 114.69 169.28 114.33 170.51 114.00 C 167.45 117.14 163.88 119.71 160.86 122.89 C 158.62 125.25 155.34 125.94 152.21 125.60 C 150.99 128.81 149.64 131.95 148.49 135.18 C 146.88 135.55 145.27 135.92 143.67 136.29 C 145.57 130.34 148.19 124.66 150.28 118.79 C 146.25 122.20 142.60 126.34 137.48 128.16 C 136.67 126.92 135.91 125.65 135.20 124.36 C 132.77 126.45 130.15 129.14 126.65 128.84 C 126.11 127.77 125.62 126.68 125.18 125.58 C 123.23 125.89 121.27 126.05 119.32 126.31 C 116.67 128.61 113.82 131.11 110.02 130.67 C 109.27 129.41 108.55 128.13 107.83 126.86 C 104.93 129.23 101.94 132.50 97.82 131.93 C 97.03 127.84 99.98 124.62 101.58 121.18 C 97.25 123.53 94.66 128.00 90.34 130.38 C 85.25 132.98 84.09 139.37 79.30 142.33 C 77.41 143.78 74.95 143.65 72.71 143.66 C 72.17 137.64 78.09 134.86 82.62 132.68 C 83.53 127.32 87.81 123.26 88.22 117.74 C 82.83 118.59 80.28 124.16 79.55 129.00 C 80.41 129.35 82.14 130.05 83.00 130.40 C 80.98 131.82 79.02 134.04 76.32 133.76 C 74.31 132.71 74.58 130.08 75.06 128.24 C 76.58 123.27 80.30 118.91 85.13 116.92 C 87.98 116.56 90.91 117.25 93.75 116.43 C 91.68 120.95 89.72 125.53 88.29 130.29 C 91.32 128.49 93.91 126.10 96.49 123.72 C 96.49 121.83 95.91 119.71 97.08 118.03 C 98.12 116.04 100.40 115.42 102.32 114.60 C 101.93 116.57 101.49 118.52 101.12 120.48 C 103.82 118.45 106.07 115.89 108.84 113.95 C 107.03 118.78 103.29 122.82 102.70 128.10 C 109.24 126.77 109.71 118.95 114.74 115.70 C 117.56 113.35 121.26 112.51 124.86 112.88 C 124.25 117.21 122.14 121.07 120.56 125.09 C 122.36 124.56 124.60 124.47 125.75 122.76 C 127.92 119.74 128.67 115.89 131.04 113.02 C 132.66 112.10 134.51 111.72 136.27 111.16 C 134.10 115.93 130.91 120.37 130.34 125.71 C 136.63 123.65 138.32 116.65 141.27 111.50 C 142.99 111.07 144.70 110.63 146.42 110.21 C 144.33 114.73 141.56 119.02 140.62 123.99 C 147.08 121.83 150.63 115.57 154.55 110.47 C 155.82 108.70 158.11 109.38 159.90 109.59 M 153.43 124.30 C 159.48 123.89 162.22 116.77 162.18 111.47 C 156.19 112.21 154.69 119.44 153.43 124.30 M 114.65 120.62 C 113.92 122.95 112.37 126.05 114.80 127.88 C 116.62 126.90 119.01 125.43 118.00 122.99 C 117.16 119.46 119.66 116.53 121.08 113.56 C 118.23 115.14 115.71 117.47 114.65 120.62 M 74.72 142.49 C 78.80 141.91 80.71 138.12 82.22 134.76 C 78.69 136.05 74.54 138.06 74.72 142.49 Z" />
</g>
</svg>
