<?xml version="1.0" encoding="utf-8"?>
<!-- Generator: Adobe Illustrator 27.7.0, SVG Export Plug-In . SVG Version: 6.00 Build 0)  -->
<svg version="1.1" id="Livello_1" xmlns="http://www.w3.org/2000/svg" xmlns:xlink="http://www.w3.org/1999/xlink" x="0px" y="0px"
	 viewBox="0 0 168 103" style="enable-background:new 0 0 168 103;" xml:space="preserve">
<style type="text/css">
	.st0{fill:#FFFFFF;}
</style>
<g id="_x23_ffffffff">
</g>
<g id="_x23_000000ff">
	<path class="st0" d="M33.2,7.2c1.8,2.8,4.9,5.5,4.5,9.1c-0.4,5-0.4,10.1,0.6,15.1c0.8,3.3-1,6.3-2.1,9.2
		c-5.5,11.9-10.2,24.5-19,34.5c-2.6-2.3-5-4.8-6.4-8c0-2.7,1.8-5.1,1.4-7.8C10.6,48.1,8.8,36.9,8,25.5c0-1.7-1.9-2.7-1.8-4.4
		c0.1-3.5,0.2-7.1,1.1-10.5c1-0.7,2.1-1.2,3.2-1.8c3.1,12.6,4.4,25.5,8,38C25.4,34.4,27.9,20.3,33.2,7.2z"/>
	<path class="st0" d="M46.5,12.8c7.8-2.4,16.1-0.7,23.8,1.3c0.5,3.3-0.1,6.7-1.4,9.7c-4.2,0.4-8.3,1-12.4,2
		c-1.5,3.4-2.9,6.8-4.4,10.2c5.8,0,11.8,0.2,17.2,2.6c-0.4,1.6-0.7,3.2-1.1,4.8c-7.5,1.9-14.5,5.7-20.1,11.1
		c1.1,1.6,1.8,4.1,4.1,4.3c5.4,0.5,9.8-3.3,14.4-5.6c-1.7,3.2-2.8,6.8-4.9,9.8c-4.5,2.7-9.8,6.3-15.3,5.1c-1.8-1.6-3.5-3.3-6.1-3.2
		c-0.3-11.5,0.7-23,2.4-34.4C43.7,24.7,43.9,18.3,46.5,12.8z"/>
	<path class="st0" d="M72.6,16.2c4.8-0.4,9.6-2,14.4-0.9c6.6,1.2,13.3,3.1,18.6,7.4c2,3.6,2.4,7.8,3.2,11.8c0.2,1.6,0,4.2-2.1,4.3
		c-7.2,1.5-14.6,0.9-21.9,1.1c6.8,7.9,15.5,13.8,24.9,18c-3.3,2-6.3,4.6-9.7,6.6c-7.1-1.5-13.1-5.9-18.4-10.7
		c-0.3,3.7-0.8,7.4-1.7,11c-2-1.2-5.5-1.7-5.7-4.6c-0.7-12.7,0.5-25.3,2.2-37.9c-1.4-0.7-2.8-1.3-4.1-2C72.3,19,72.4,17.6,72.6,16.2
		 M85,26.7c-0.3,3.6-0.7,7.2-1.1,10.8c6.3-0.6,12.6-1.8,18.2-4.9C97,29,91,27.3,85,26.7z"/>
	<path class="st0" d="M108.1,21.2c6.3-0.9,12.7-0.1,18.9,0.8c2.2,0.3,4.5-1.8,6.6-0.3c3.9,2.3,8.4,3.1,12.5,4.9
		c-0.3,2.5-0.3,5.9-3.1,6.9c-9,4.2-16.4,10.9-22.8,18.3c2.8,1.5,5.6,3.3,8.8,3.9c4.2,0.4,8-2,12-2.8c1.8,0.1,3.2,1.4,4.8,2.2
		c-7,3.2-14.2,6.2-21.8,7.6c-6.5,1.3-12.3-4-14.5-9.7c-1.3-2.8,0.3-5.8,1.9-8.2c4.3-6,10-11.2,16.8-14.1c-4.9-0.8-10-1.3-14.8-2.6
		C110.8,26.5,109.7,23.5,108.1,21.2z"/>
	<path class="st0" d="M154.3,21.4c4.2-1.6,6.4,2.8,7.9,5.9c1.3,1.5,0,3.3-0.5,4.9c-3.5,8.8-5.7,18-8.5,27c-2.6-1.2-5.4-3-5.8-6
		c-0.7-5,1.4-9.8,1.8-14.7c-0.2-2.3-1.6-4.2-2.4-6.2C149,28.4,151,24.3,154.3,21.4z"/>
	<path class="st0" d="M143.9,62.9c2.1-0.5,4.3-2.4,6.4-1c1.6,1.8,0.6,4.3,0.5,6.5c1.2-0.4,2.4-0.7,3.7-1.1c-3.1,3.1-6.6,5.7-9.6,8.9
		c-2.2,2.4-5.5,3.1-8.6,2.7c-1.2,3.2-2.6,6.3-3.7,9.6c-1.6,0.4-3.2,0.7-4.8,1.1c1.9-5.9,4.5-11.6,6.6-17.5c-4,3.4-7.7,7.5-12.8,9.4
		c-0.8-1.2-1.6-2.5-2.3-3.8c-2.4,2.1-5.1,4.8-8.5,4.5c-0.5-1.1-1-2.2-1.5-3.3c-1.9,0.3-3.9,0.5-5.9,0.7c-2.7,2.3-5.5,4.8-9.3,4.4
		c-0.8-1.3-1.5-2.5-2.2-3.8c-2.9,2.4-5.9,5.6-10,5.1C81,81.2,84,78,85.6,74.5c-4.3,2.3-6.9,6.8-11.2,9.2c-5.1,2.6-6.2,9-11,11.9
		c-1.9,1.4-4.4,1.3-6.6,1.3c-0.5-6,5.4-8.8,9.9-11c0.9-5.4,5.2-9.4,5.6-14.9c-5.4,0.8-7.9,6.4-8.7,11.3c0.9,0.4,2.6,1.1,3.4,1.4
		c-2,1.4-4,3.6-6.7,3.4c-2-1-1.7-3.7-1.3-5.5c1.5-5,5.2-9.3,10.1-11.3c2.9-0.4,5.8,0.3,8.6-0.5c-2.1,4.5-4,9.1-5.5,13.9
		c3-1.8,5.6-4.2,8.2-6.6c0-1.9-0.6-4,0.6-5.7c1-2,3.3-2.6,5.2-3.4c-0.4,2-0.8,3.9-1.2,5.9c2.7-2,4.9-4.6,7.7-6.5
		c-1.8,4.8-5.5,8.9-6.1,14.2c6.5-1.3,7-9.2,12-12.4c2.8-2.3,6.5-3.2,10.1-2.8c-0.6,4.3-2.7,8.2-4.3,12.2c1.8-0.5,4-0.6,5.2-2.3
		c2.2-3,2.9-6.9,5.3-9.7c1.6-0.9,3.5-1.3,5.2-1.9c-2.2,4.8-5.4,9.2-5.9,14.5c6.3-2.1,8-9.1,10.9-14.2c1.7-0.4,3.4-0.9,5.1-1.3
		c-2.1,4.5-4.9,8.8-5.8,13.8c6.5-2.2,10-8.4,13.9-13.5C139.8,62.1,142.1,62.7,143.9,62.9 M137.4,77.7c6.1-0.4,8.8-7.5,8.8-12.8
		C140.2,65.6,138.7,72.8,137.4,77.7 M98.7,74c-0.7,2.3-2.3,5.4,0.2,7.3c1.8-1,4.2-2.4,3.2-4.9c-0.8-3.5,1.7-6.5,3.1-9.4
		C102.2,68.5,99.7,70.8,98.7,74 M58.7,95.8c4.1-0.6,6-4.4,7.5-7.7C62.7,89.4,58.5,91.4,58.7,95.8z"/>
</g>
</svg>
